<svg width="64" height="64" viewBox="0 0 64 64" fill="none" xmlns="http://www.w3.org/2000/svg">
<circle cx="32" cy="32" r="32" fill="url(#paint0_radial_1167_7821)"/>
<path fill-rule="evenodd" clip-rule="evenodd" d="M29.9376 25.771C30.4845 25.224 31.2264 24.9167 31.9999 24.9167C32.7735 24.9167 33.5154 25.224 34.0623 25.771C34.6093 26.318 34.9166 27.0599 34.9166 27.8334V31.1667H29.0833V27.8334C29.0833 27.0599 29.3906 26.318 29.9376 25.771ZM26.5833 31.1667V27.8334C26.5833 26.3968 27.154 25.0191 28.1698 24.0033C29.1856 22.9874 30.5634 22.4167 31.9999 22.4167C33.4365 22.4167 34.8143 22.9874 35.8301 24.0033C36.8459 25.0191 37.4166 26.3968 37.4166 27.8334V31.1667H37.8333C38.7538 31.1667 39.5 31.9129 39.5 32.8334V38.6667C39.5 39.5872 38.7538 40.3334 37.8333 40.3334H26.1667C25.2462 40.3334 24.5 39.5872 24.5 38.6667V32.8334C24.5 31.9129 25.2462 31.1667 26.1667 31.1667H26.5833Z" fill="#0056D2"/>
<defs>
<radialGradient id="paint0_radial_1167_7821" cx="0" cy="0" r="1" gradientUnits="userSpaceOnUse" gradientTransform="translate(32 32) rotate(90) scale(32)">
<stop stop-color="#E3ECFA"/>
<stop offset="1" stop-color="#E3ECFA" stop-opacity="0"/>
</radialGradient>
</defs>
</svg>
